#!OML:ASF F:\twosubjects\two\Thursday\Session 1\Rory.ASF
:FULLY-SPECIFIED
:DEGREES
260
root 7.55745 10.5355 7.86264 160.732 -4.61126 -179.573
lowerback 32.0896 1.34284 0.876912
upperback 11.2152 -1.45502 -1.89474
thorax -4.83023 -2.04006 -2.0004
lowerneck -14.6213 -3.69715 -4.32502
upperneck 9.57761 -4.60438 3.89318
head 5.46323 -2.12784 1.51008
rclavicle -9.93923e-015 0
rhumerus 18.8942 11.013 -84.9659
rradius 65.1547
rwrist 27.2064
rhand -20.9526 25.7865
rfingers 7.12502
rthumb 5.42015 -4.12423
lclavicle -9.93923e-015 0
lhumerus 22.9356 -21.6792 73.9426
lradius 62.8525
lwrist -23.0484
lhand -21.8955 19.8222
lfingers 7.12502
lthumb 4.50965 49.7542
rfemur -57.3321 -14.277 -8.90371
rtibia 108.878
rfoot -19.7914 -2.10719
rtoes -23.051
lfemur -52.1004 22.067 9.94508
ltibia 113.156
lfoot -26.9783 -5.38462
ltoes -11.982
261
root 7.55955 10.5295 7.85987 160.742 -4.57672 -179.565
lowerback 32.1641 1.3311 0.74
upperback 11.103 -1.4729 -1.79052
thorax -4.99003 -2.04134 -1.79416
lowerneck -14.0759 -3.67758 -4.33275
upperneck 9.31663 -4.55931 3.65331
head 5.28398 -2.12983 1.4495
rclavicle -2.04748e-014 1.43125e-014
rhumerus 18.8609 11.2583 -84.895
rradius 65.0324
rwrist 27.3259
rhand -20.8453 25.2793
rfingers 7.12502
rthumb 5.52366 -4.62873
lclavicle -2.04748e-014 1.43125e-014
lhumerus 22.5909 -21.5388 74.1178
lradius 62.7713
lwrist -22.8482
lhand -21.8888 20.1732
lfingers 7.12502
lthumb 4.51616 50.105
rfemur -57.4703 -14.2215 -8.86702
rtibia 108.964
rfoot -19.8489 -2.11289
rtoes -23.1492
lfemur -52.1825 22.1544 9.88211
ltibia 113.148
lfoot -26.9808 -4.43653
ltoes -15.0483
262
root 7.56043 10.5385 7.85973 160.736 -4.56318 -179.65
lowerback 32.2988 1.41103 0.757674
upperback 11.0952 -1.37966 -1.84379
thorax -5.05595 -1.99875 -1.8941
lowerneck -14.0698 -3.77949 -4.13615
upperneck 9.31318 -4.72488 3.57359
head 5.28184 -2.20929 1.37812
rclavicle -1.0138e-014 0
rhumerus 18.8464 10.9703 -84.9038
rradius 65.1075
rwrist 27.244
rhand -20.4932 25.3286
rfingers 7.12502
rthumb 5.86368 -4.57028
lclavicle -1.0138e-014 0
lhumerus 22.6434 -21.774 74.0595
lradius 62.6105
lwrist -22.7282
lhand -21.723 20.7896
lfingers 7.12502
lthumb 4.67621 50.7179
rfemur -57.5407 -14.1837 -8.91096
rtibia 109.009
rfoot -19.9379 -2.03531
rtoes -22.6066
lfemur -52.0689 22.1239 9.78536
ltibia 113.086
lfoot -26.9187 -4.23081
ltoes -15.5417
263
root 7.56007 10.5457 7.86101 160.722 -4.52129 -179.699
lowerback 32.4326 1.47362 0.837879
upperback 11.1149 -1.29975 -1.90242
thorax -5.09003 -1.9654 -2.03256
lowerneck -14.2414 -3.86185 -4.06892
upperneck 9.46907 -4.85232 3.61446
head 5.3633 -2.26378 1.36485
rclavicle -1.2921e-014 -2.38542e-015
rhumerus 18.8835 10.7053 -84.9475
rradius 65.107
rwrist 27.227
rhand -20.7239 25.4507
rfingers 7.12502
rthumb 5.64095 -4.45423
lclavicle -1.2921e-014 -2.38542e-015
lhumerus 22.8633 -21.9509 73.981
lradius 62.4935
lwrist -22.5925
lhand -21.6951 20.6363
lfingers 7.12502
lthumb 4.70323 50.5641
rfemur -57.5638 -14.1453 -8.91778
rtibia 109.012
rfoot -19.9807 -2.07131
rtoes -22.4483
lfemur -51.9671 22.1292 9.744
ltibia 113.043
lfoot -26.9514 -4.64012
ltoes -15.3387
264
root 7.55956 10.5415 7.85677 160.7 -4.58347 -179.602
lowerback 32.4242 1.45336 0.853247
upperback 11.1537 -1.31871 -1.77721
thorax -5.04005 -1.97998 -1.89542
lowerneck -14.1432 -3.86883 -4.18338
upperneck 9.3851 -4.82793 3.52124
head 5.32017 -2.26364 1.35829
rclavicle 1.39149e-015 1.11319e-014
rhumerus 18.9556 10.8703 -84.7102
rradius 65.0417
rwrist 27.306
rhand -21.4641 25.3838
rfingers 7.12502
rthumb 4.92619 -4.53895
lclavicle 1.39149e-015 1.11319e-014
lhumerus 23.0128 -21.8505 74.1198
lradius 62.3089
lwrist -22.5867
lhand -21.5438 19.9003
lfingers 7.12502
lthumb 4.84924 49.8248
rfemur -57.427 -14.1547 -8.8874
rtibia 109.008
rfoot -20.024 -2.11967
rtoes -22.5859
lfemur -52.0062 22.0833 9.84819
ltibia 113.063
lfoot -27.0427 -5.11682
ltoes -14.944
265
root 7.56205 10.5372 7.8542 160.713 -4.59572 -179.563
lowerback 32.3942 1.49606 0.779016
upperback 11.1974 -1.28941 -1.67423
thorax -4.97338 -1.97355 -1.7489
lowerneck -14.0751 -3.87775 -4.17711
upperneck 9.23469 -4.82504 3.40923
head 5.25861 -2.27083 1.32457
rclavicle 1.23246e-014 2.38542e-014
rhumerus 19.18 10.9955 -84.4308
rradius 64.9063
rwrist 27.3216
rhand -21.6396 25.5604
rfingers 7.12502
rthumb 4.75678 -4.3662
lclavicle 1.23246e-014 2.38542e-014
lhumerus 23.2333 -21.7831 74.2554
lradius 62.1513
lwrist -22.7458
lhand -21.4268 19.8827
lfingers 7.12502
lthumb 4.96229 49.8046
rfemur -57.401 -14.1058 -8.8688
rtibia 109.013
rfoot -19.9895 -2.12143
rtoes -22.5473
lfemur -52.0585 22.1124 9.9064
ltibia 113.082
lfoot -27.0226 -4.9809
ltoes -14.9197
266
root 7.56292 10.5396 7.85355 160.743 -4.53498 -179.648
lowerback 32.4722 1.53783 0.753063
upperback 11.1787 -1.25251 -1.73142
thorax -5.0291 -1.95643 -1.80906
lowerneck -14.0495 -3.841 -3.99702
upperneck 9.19258 -4.79541 3.29015
head 5.23264 -2.25864 1.26193
rclavicle -8.34896e-015 7.95139e-016
rhumerus 19.4426 10.8729 -84.4098
rradius 64.6656
rwrist 27.1931
rhand -21.1033 26.2877
rfingers 7.12502
rthumb 5.27457 -3.6267
lclavicle -8.34896e-015 7.95139e-016
lhumerus 23.4175 -21.692 74.4445
lradius 62.0238
lwrist -23.014
lhand -21.496 20.1659
lfingers 7.12502
lthumb 4.89545 50.0894
rfemur -57.4674 -14.0433 -8.91504
rtibia 109.006
rfoot -20.0167 -2.07061
rtoes -22.1885
lfemur -52.0065 22.1721 9.83882
ltibia 113.08
lfoot -27.0038 -4.80132
ltoes -15.2416
267
root 7.55938 10.5341 7.84778 160.795 -4.54761 -179.7
lowerback 32.5115 1.49427 0.82454
upperback 11.2014 -1.3002 -1.76418
thorax -5.02292 -1.98181 -1.87006
lowerneck -14.2301 -3.8125 -4.10113
upperneck 9.25367 -4.73641 3.33205
head 5.28278 -2.22848 1.29372
rclavicle 3.57812e-015 -3.73715e-014
rhumerus 19.8888 10.7354 -84.4498
rradius 64.2613
rwrist 27.2214
rhand -21.0536 26.5485
rfingers 7.12502
rthumb 5.32258 -3.36463
lclavicle 3.57812e-015 -3.73715e-014
lhumerus 23.7365 -21.4379 74.5962
lradius 61.8379
lwrist -23.1513
lhand -21.46 20.1689
lfingers 7.12502
lthumb 4.93017 50.0916
rfemur -57.4496 -14.055 -9.01932
rtibia 108.992
rfoot -20.0657 -2.03352
rtoes -22.5141
lfemur -52.052 22.1973 9.77352
ltibia 113.129
lfoot -27.1361 -4.53885
ltoes -16.8356
268
root 7.55914 10.5284 7.8441 160.898 -4.54353 -179.607
lowerback 32.3968 1.44882 0.958256
upperback 11.2789 -1.32675 -1.71082
thorax -4.88291 -1.99837 -1.88228
lowerneck -14.5064 -3.86299 -4.29068
upperneck 9.2879 -4.76805 3.42445
head 5.34691 -2.2411 1.34547
rclavicle 2.78299e-015 -1.59028e-015
rhumerus 20.4646 10.6594 -84.4201
rradius 63.8211
rwrist 27.302
rhand -21.5549 26.1633
rfingers 7.12502
rthumb 4.83857 -3.76147
lclavicle 2.78299e-015 -1.59028e-015
lhumerus 24.1944 -21.3631 74.3753
lradius 61.6169
lwrist -22.9376
lhand -21.2092 20.0228
lfingers 7.12502
lthumb 5.17234 49.9397
rfemur -57.5788 -14.1444 -8.89828
rtibia 109.02
rfoot -19.9852 -2.13091
rtoes -23.0775
lfemur -52.1991 22.2834 9.92643
ltibia 113.185
lfoot -27.1341 -4.80043
ltoes -16.3043
269
root 7.56109 10.5374 7.8447 160.855 -4.40411 -179.563
lowerback 32.4253 1.51418 1.0063
upperback 11.3305 -1.25129 -1.69651
thorax -4.83241 -1.97084 -1.92115
lowerneck -14.4354 -3.90395 -4.11463
upperneck 9.10997 -4.84017 3.29548
head 5.27451 -2.28045 1.27264
rclavicle 1.90833e-014 3.26007e-014
rhumerus 20.7035 10.6371 -84.3049
rradius 63.6752
rwrist 26.9414
rhand -21.8875 25.716
rfingers 7.12502
rthumb 4.51739 -4.21585
lclavicle 1.90833e-014 3.26007e-014
lhumerus 24.3264 -21.5139 74.0107
lradius 61.56
lwrist -22.6137
lhand -20.6441 20.4205
lfingers 7.12502
lthumb 5.71796 50.3234
rfemur -57.6763 -13.9955 -8.72105
rtibia 109.046
rfoot -19.9677 -2.32074
rtoes -23.2217
lfemur -51.9719 22.3659 10.1384
ltibia 113.143
lfoot -27.0594 -5.65008
ltoes -13.1185
270
root 7.56162 10.5454 7.84535 160.829 -4.39652 -179.661
lowerback 32.512 1.56432 0.898557
upperback 11.3309 -1.23207 -1.71538
thorax -4.87025 -1.96741 -1.88497
lowerneck -14.296 -3.87385 -4.04174
upperneck 8.99884 -4.81425 3.27455
head 5.21361 -2.26857 1.25987
rclavicle -3.97569e-016 -8.74653e-015
rhumerus 20.7941 10.6993 -84.1658
rradius 63.5974
rwrist 26.4604
rhand -21.8765 25.0691
rfingers 7.12502
rthumb 4.52807 -4.8625
lclavicle -3.97569e-016 -8.74653e-015
lhumerus 24.3853 -21.43 74.0954
lradius 61.2942
lwrist -22.5964
lhand -20.2581 21.4118
lfingers 7.12502
lthumb 6.0906 51.3043
rfemur -57.6226 -13.883 -8.81821
rtibia 109.02
rfoot -20.0392 -2.34002
rtoes -23.2991
lfemur -51.8472 22.3093 10.0247
ltibia 113.081
lfoot -27.0032 -5.81228
ltoes -11.6715
